ModelForces
version=1
nRows=4
nColumns=155
inDegrees=no

This file contains the forces exerted on a model during a simulation.

A force is a generalized force, meaning that it can be either a force (N) or a torque (Nm).

Units are S.I. units (second, meters, Newtons, ...)
Angles are in degrees.

endheader
time	glut_med1_r	glut_med2_r	glut_med3_r	glut_min1_r	glut_min2_r	glut_min3_r	semimem_r	semiten_r	bifemlh_r	bifemsh_r	sar_r	add_long_r	add_brev_r	add_mag1_r	add_mag2_r	add_mag3_r	tfl_r	pect_r	grac_r	glut_max1_r	glut_max2_r	glut_max3_r	iliacus_r	psoas_r	quad_fem_r	gem_r	peri_r	rect_fem_r	vas_med_r	vas_int_r	vas_lat_r	med_gas_r	lat_gas_r	soleus_r	tib_post_r	flex_dig_r	flex_hal_r	tib_ant_r	per_brev_r	per_long_r	per_tert_r	ext_dig_r	ext_hal_r	glut_med1_l	glut_med2_l	glut_med3_l	glut_min1_l	glut_min2_l	glut_min3_l	semimem_l	semiten_l	bifemlh_l	bifemsh_l	sar_l	add_long_l	add_brev_l	add_mag1_l	add_mag2_l	add_mag3_l	tfl_l	pect_l	grac_l	glut_max1_l	glut_max2_l	glut_max3_l	iliacus_l	psoas_l	quad_fem_l	gem_l	peri_l	rect_fem_l	vas_med_l	vas_int_l	vas_lat_l	med_gas_l	lat_gas_l	soleus_l	tib_post_l	flex_dig_l	flex_hal_l	tib_ant_l	per_brev_l	per_long_l	per_tert_l	ext_dig_l	ext_hal_l	ercspn_r	ercspn_l	intobl_r	intobl_l	extobl_r	extobl_l	femur_lat_meniscii_r.femur_lat_r.force.X	femur_lat_meniscii_r.femur_lat_r.force.Y	femur_lat_meniscii_r.femur_lat_r.force.Z	femur_lat_meniscii_r.femur_lat_r.torque.X	femur_lat_meniscii_r.femur_lat_r.torque.Y	femur_lat_meniscii_r.femur_lat_r.torque.Z	femur_lat_meniscii_r.meniscus_lat_r.force.X	femur_lat_meniscii_r.meniscus_lat_r.force.Y	femur_lat_meniscii_r.meniscus_lat_r.force.Z	femur_lat_meniscii_r.meniscus_lat_r.torque.X	femur_lat_meniscii_r.meniscus_lat_r.torque.Y	femur_lat_meniscii_r.meniscus_lat_r.torque.Z	femur_med_meniscii_r.femur_med_r.force.X	femur_med_meniscii_r.femur_med_r.force.Y	femur_med_meniscii_r.femur_med_r.force.Z	femur_med_meniscii_r.femur_med_r.torque.X	femur_med_meniscii_r.femur_med_r.torque.Y	femur_med_meniscii_r.femur_med_r.torque.Z	femur_med_meniscii_r.meniscus_med_r.force.X	femur_med_meniscii_r.meniscus_med_r.force.Y	femur_med_meniscii_r.meniscus_med_r.force.Z	femur_med_meniscii_r.meniscus_med_r.torque.X	femur_med_meniscii_r.meniscus_med_r.torque.Y	femur_med_meniscii_r.meniscus_med_r.torque.Z	femur_med_tibia_r.tibia_upper_r.force.X	femur_med_tibia_r.tibia_upper_r.force.Y	femur_med_tibia_r.tibia_upper_r.force.Z	femur_med_tibia_r.tibia_upper_r.torque.X	femur_med_tibia_r.tibia_upper_r.torque.Y	femur_med_tibia_r.tibia_upper_r.torque.Z	femur_med_tibia_r.femur_med_r.force.X	femur_med_tibia_r.femur_med_r.force.Y	femur_med_tibia_r.femur_med_r.force.Z	femur_med_tibia_r.femur_med_r.torque.X	femur_med_tibia_r.femur_med_r.torque.Y	femur_med_tibia_r.femur_med_r.torque.Z	femur_lat_tibia_r.tibia_upper_r.force.X	femur_lat_tibia_r.tibia_upper_r.force.Y	femur_lat_tibia_r.tibia_upper_r.force.Z	femur_lat_tibia_r.tibia_upper_r.torque.X	femur_lat_tibia_r.tibia_upper_r.torque.Y	femur_lat_tibia_r.tibia_upper_r.torque.Z	femur_lat_tibia_r.femur_lat_r.force.X	femur_lat_tibia_r.femur_lat_r.force.Y	femur_lat_tibia_r.femur_lat_r.force.Z	femur_lat_tibia_r.femur_lat_r.torque.X	femur_lat_tibia_r.femur_lat_r.torque.Y	femur_lat_tibia_r.femur_lat_r.torque.Z	aACL_R	pACL_R	aPCL_R	pPCL_R	aMCL_R	mMCL_R	pMCL_R	aLCL_R	mLCL_R	pLCL_R	aPCL_L	pPCL_L	aMCL_L	aLCL_L
      0.17616369	     10.89784041	      7.96501252	      8.56193764	      3.68463242	      4.29450160	      4.61203430	      0.00000000	    178.81876903	    142.15046166	    299.63608497	    134.11370837	      7.92293182	      5.72123044	      4.04679162	      3.47027379	      5.82806553	      4.44404819	      3.10913918	    104.93340220	      5.14199822	      7.82144567	      5.87335090	     26.84644238	     17.73023227	      5.06181359	      3.54049421	      6.09587669	     63.36997589	     30.31604630	     32.38892759	     43.67301597	      0.00000000	      0.00000000	      0.00000000	      0.00000000	      0.00000000	      0.00000000	     39.42236199	      2.79335631	      3.55815426	     23.48907419	     44.09546963	     12.28776559	     10.89784041	      7.96501252	      8.56193764	      3.68463242	      4.29450160	      4.61203430	      4.30724019	      5.88471459	     11.61396160	     10.07436955	      2.10280588	      7.92293182	      5.72123044	      4.04679162	      3.47027379	      5.82806553	      5.23612889	      3.10913918	      2.16906636	      5.14199822	      7.82144567	      5.87335090	     26.84644238	     17.73023227	      5.06181359	      3.54049421	      6.09587669	     16.12081618	      0.00000000	      0.00000000	      0.00000000	     20.81520771	      9.79662284	     48.53686981	     49.83007402	      5.16433760	      4.60602254	     12.57677686	      6.70780548	     17.47221150	      2.74177730	      8.42610532	      2.66034909	     34.67880186	     34.67880186	     12.83853085	     12.83853085	     30.26236118	     30.26236118	     42.23340240	    164.07374279	     25.03108780	    -14.07530972	      1.11330506	     15.85135966	    -42.23340240	   -164.07374279	    -25.03108780	      4.63865603	     -1.76240043	      4.32521055	     21.36564587	      9.80494673	     -1.11178924	      0.64628763	     -0.46402823	      8.55746052	    -21.36564587	     -9.80494673	      1.11178924	     -0.19720570	      0.45214736	     -0.03207306	   -445.02232424	   -648.23938505	    188.37119918	    -13.48866540	     12.12123277	      9.44884687	    445.02232424	    648.23938505	   -188.37119918	     87.80244805	     -8.57272838	    178.32705910	    -26.62432068	   -122.71225389	    -28.51096334	      3.58434220	     -1.51411362	      3.18461247	     26.62432068	    122.71225389	     28.51096334	    -14.44530646	      0.81240617	      9.97782941	      1.65340500	      0.00000000	    373.78990559	    221.80041835	      0.00000000	      0.00000000	      0.00000000	      0.00000000	      0.00000000	      0.00000000	      0.00000000	      0.00000000	      0.00000001	      0.00000000
      0.17638325	     10.88837389	      7.95837913	      8.55472066	      3.68169073	      4.29128688	      4.60792491	      0.00000000	    178.99442544	    141.86924558	    299.44394602	    134.18322965	      7.91625682	      5.71670534	      4.04529537	      3.46733030	      5.82272945	      4.44517929	      3.10663937	    104.99594038	      5.13770119	      7.81489399	      5.86835235	     26.83424401	     17.71632750	      5.05768398	      3.53848518	      6.09275690	     63.58381363	     30.30908432	     32.37670062	     43.64818012	      0.00000000	      0.00000000	      0.00000000	      0.00000000	      0.00000000	      0.00000000	     39.43992394	      2.80384831	      3.58137104	     23.17168010	     44.20369975	     12.31571125	     10.88837389	      7.95837913	      8.55472066	      3.68169073	      4.29128688	      4.60792491	      4.46824505	      5.87949229	     11.60332751	     10.06614159	      2.10113492	      7.91625682	      5.71670534	      4.04529537	      3.46733030	      5.82272945	      5.23283482	      3.10663937	      2.16731235	      5.13770119	      7.81489399	      5.86835235	     26.83424401	     17.71632750	      5.05768398	      3.53848518	      6.09275690	     16.10529462	      0.00000000	      0.00000000	      0.00000000	     20.80724525	      9.79222779	     48.49548651	     49.80984955	      5.15851623	      4.60033453	     12.56516766	      6.70125313	     17.45949919	      2.73963442	      8.42030985	      2.65885108	     34.65105291	     34.65105291	     12.82741579	     12.82741579	     30.25230308	     30.25230308	     42.24494389	    163.66926690	     24.85063402	    -13.99208506	      1.11046123	     15.85188498	    -42.24494389	   -163.66926690	    -24.85063402	      4.62419016	     -1.75622066	      4.32615821	     21.68801307	      9.75081974	     -1.17447131	      0.67121431	     -0.47174391	      8.68795493	    -21.68801307	     -9.75081974	      1.17447131	     -0.19783028	      0.46075391	     -0.03759669	   -448.37720904	   -649.58052944	    188.64675646	    -13.51315830	     12.19905928	      9.47628468	    448.37720904	    649.58052944	   -188.64675646	     87.94291562	     -8.64481689	    179.66756373	    -26.86816897	   -121.44013103	    -28.25292680	      3.54592896	     -1.51255547	      3.14607332	     26.86816897	    121.44013103	     28.25292680	    -14.30966190	      0.81547107	     10.08638994	      1.53983250	      0.00000000	    376.81411746	    223.39122157	      0.00000000	      0.00000000	      0.00000000	      0.00000000	      0.00000000	      0.00000000	      0.00000000	      0.00000000	      0.00000001	      0.00000000
      0.17671811	     10.87398114	      7.94829999	      8.54375491	      3.67722082	      4.28640223	      4.60168083	      0.00000000	    179.25795924	    141.44918319	    299.15524340	    134.28725453	      7.90611456	      5.70982938	      4.04289299	      3.46285789	      5.81462158	      4.44699427	      3.10284093	    105.08929153	      5.13117215	      7.80493920	      5.86075745	     26.81571004	     17.69520114	      5.05140915	      3.53543280	      6.08797894	     63.91012466	     30.29698101	     32.35695197	     43.60979835	      0.00000000	      0.00000000	      0.00000000	      0.00000000	      0.00000000	      0.00000000	     39.46544216	      2.82007355	      3.61705073	     23.53840096	     44.36646495	     12.35694080	     10.87398114	      7.94829999	      8.54375491	      3.67722082	      4.28640223	      4.60168083	      4.70308614	      5.87155742	     11.58715485	     10.05363945	      2.09859587	      7.90611456	      5.70982938	      4.04289299	      3.46285789	      5.81462158	      5.22782951	      3.10284093	      2.16464716	      5.13117215	      7.80493920	      5.86075745	     26.81571004	     17.69520114	      5.05140915	      3.53543280	      6.08797894	     16.08170703	      0.00000000	      0.00000000	      0.00000000	     20.79502455	      9.78549385	     48.43247076	     49.77909924	      5.14960731	      4.59161876	     12.54752036	      6.69129298	     17.44016099	      2.73637860	      8.41157996	      2.65660323	     34.60888832	     34.60888832	     12.81052729	     12.81052729	     30.23702118	     30.23702118	     42.75889471	    162.83332224	     24.31620774	    -13.74692976	      1.12134552	     16.06220711	    -42.75889471	   -162.83332224	    -24.31620774	      4.58427218	     -1.75689336	      4.30583226	     22.13816910	      9.80619529	     -1.20475284	      0.68458592	     -0.48233494	      8.86881007	    -22.13816910	     -9.80619529	      1.20475284	     -0.19926667	      0.47127397	     -0.04076402	   -454.46954165	   -650.59517177	    189.21630544	    -13.54200202	     12.33553199	      9.46154720	    454.46954165	    650.59517177	   -189.21630544	     88.20498345	     -8.77086993	    182.12449392	    -26.65149309	   -119.70976023	    -27.65282730	      3.48604711	     -1.49094013	      3.11057470	     26.65149309	    119.70976023	     27.65282730	    -14.02082354	      0.80673020	     10.00468923	      1.36441490	      0.00000000	    381.41547901	    225.79728448	      0.00000000	      0.00000000	      0.00000000	      0.00000000	      0.00000000	      0.00000000	      0.00000000	      0.00000000	      0.00000001	      0.00000000
      0.17693656	     10.86462091	      7.94174900	      8.53662773	      3.67431547	      4.28322742	      4.59762242	      0.00000000	    179.42604386	    141.17969429	    298.96397249	    134.35293777	      7.89952262	      5.70536011	      4.04125121	      3.45995107	      5.80935187	      4.44821885	      3.10037205	    105.14813147	      5.12692864	      7.79846913	      5.85582122	     26.80366438	     17.68147080	      5.04733073	      3.53344907	      6.08484919	     64.12471901	     30.28934614	     32.34416028	     43.58453925	      0.00000000	      0.00000000	      0.00000000	      0.00000000	      0.00000000	      0.00000000	     39.48137534	      2.83081791	      3.64051628	     23.20599136	     44.47267000	     12.38421230	     10.86462091	      7.94174900	      8.53662773	      3.67431547	      4.28322742	      4.59762242	      4.84981591	      5.86640022	     11.57663395	     10.04551352	      2.09694554	      7.89952262	      5.70536011	      4.04125121	      3.45995107	      5.80935187	      5.22457619	      3.10037205	      2.16291487	      5.12692864	      7.79846913	      5.85582122	     26.80366438	     17.68147080	      5.04733073	      3.53344907	      6.08484919	     16.06637403	      0.00000000	      0.00000000	      0.00000000	     20.78700247	      9.78108092	     48.39142587	     49.75909994	      5.14377553	      4.58590640	     12.53604550	      6.68481665	     17.42757756	      2.73426256	      8.40595479	      2.65516035	     34.58148234	     34.58148234	     12.79955072	     12.79955072	     30.22708922	     30.22708922	     42.95336780	    162.32219104	     24.21199367	    -13.69185239	      1.12376966	     16.13969007	    -42.95336780	   -162.32219104	    -24.21199367	      4.56819886	     -1.75802582	      4.29834170	     22.49208208	      9.93786664	     -1.24717728	      0.70398400	     -0.49023447	      9.00992322	    -22.49208208	     -9.93786664	      1.24717728	     -0.20189914	      0.47954371	     -0.04031582	   -457.82659196	   -651.77721685	    189.77961896	    -13.57284636	     12.42203359	      9.48462579	    457.82659196	    651.77721685	   -189.77961896	     88.46349956	     -8.84509808	    183.46706101	    -26.70551969	   -118.56908268	    -27.41479951	      3.45135701	     -1.48574257	      3.08124810	     26.70551969	    118.56908268	     27.41479951	    -13.89638777	      0.80607719	     10.03310187	      1.22149940	      0.00000000	    384.43015786	    227.40938800	      0.00000000	      0.00000000	      0.00000000	      0.00000000	      0.00000000	      0.00000000	      0.00000000	      0.00000000	      0.00000001	      0.00000000
